<svg width="183" height="44" viewBox="0 0 183 44" fill="none" xmlns="http://www.w3.org/2000/svg">
<path d="M12.9384 34.9452C13.6079 35.912 13.05 37.0561 12.5419 36.9979C11.8035 36.9158 10.3219 35.9199 9.77581 34.1931C9.35794 32.8741 9.61911 31.6663 9.77581 31.1075L7.15222 17.6105L2 22.6586L22.6136 2L47 9.75759L39.2076 18.9189L37.3627 12.3293C34.9148 11.736 30.615 11.0739 25.4841 12.3293C18.8551 13.9502 14.4912 17.8754 12.5585 19.8538L15.3245 32.2861C18.055 30.2997 22.2337 27.7518 27.7279 26.1176C31.5528 24.9788 35.0051 24.5841 37.8115 24.5126C38.5143 24.4941 40.2143 24.2716 38.151 25.9217C35.563 27.9902 32.1132 29.288 28.3998 30.6043C27.0441 31.0837 25.7287 31.4862 24.4608 31.82" stroke="#7BA05B" stroke-width="4" stroke-miterlimit="10" stroke-linecap="round" stroke-linejoin="round"/>
<path d="M43.81 37H38.74L45.63 18.8H50.83L57.72 37H52.65L51.48 33.75H44.98L43.81 37ZM46.15 30.37H50.31L48.23 24.26L46.15 30.37ZM65.779 37C64.6177 37.1733 63.5083 37.26 62.451 37.26C61.411 37.26 60.5357 36.9047 59.825 36.194C59.1143 35.4833 58.759 34.5387 58.759 33.36V18.8H63.309V32.71C63.309 32.97 63.3957 33.1867 63.569 33.36C63.7423 33.5333 63.959 33.62 64.219 33.62H65.779V37ZM76.8249 22.96C78.2289 22.96 79.3123 23.48 80.0749 24.52C80.8723 23.9827 81.7303 23.5927 82.6489 23.35C83.5849 23.09 84.4169 22.96 85.1449 22.96H85.4049C86.5836 22.96 87.5283 23.3153 88.2389 24.026C88.9496 24.7367 89.3049 25.6813 89.3049 26.86V37H84.7549V27.64C84.7549 27.38 84.6683 27.1633 84.4949 26.99C84.3216 26.8167 84.1049 26.73 83.8449 26.73H83.7149C82.9349 26.73 81.9383 26.9033 80.7249 27.25V37H76.1749V27.64C76.1749 27.38 76.0883 27.1633 75.9149 26.99C75.7416 26.8167 75.5249 26.73 75.2649 26.73H75.1349C74.3549 26.73 73.3583 26.9033 72.1449 27.25V37H67.5949V23.22H71.6249L71.8849 24.52C72.6996 23.9827 73.5316 23.5927 74.3809 23.35C75.2476 23.09 75.9756 22.96 76.5649 22.96H76.8249ZM97.0998 33.62C98.0185 33.62 99.0585 33.4467 100.22 33.1V31.54H96.4498C96.1898 31.54 95.9732 31.6267 95.7998 31.8C95.6265 31.9733 95.5398 32.19 95.5398 32.45V32.71C95.5398 32.97 95.6265 33.1867 95.7998 33.36C95.9732 33.5333 96.1898 33.62 96.4498 33.62H97.0998ZM92.2898 23.48C95.4618 23.1333 98.3218 22.96 100.87 22.96C102.049 22.96 102.993 23.3153 103.704 24.026C104.415 24.7367 104.77 25.6813 104.77 26.86V37H100.74L100.48 35.7C99.6652 36.2373 98.8245 36.636 97.9578 36.896C97.1085 37.1387 96.3892 37.26 95.7998 37.26H94.8898C93.7112 37.26 92.7665 36.9047 92.0558 36.194C91.3452 35.4833 90.9898 34.5387 90.9898 33.36V32.19C90.9898 31.0113 91.3452 30.0667 92.0558 29.356C92.7665 28.6453 93.7112 28.29 94.8898 28.29H100.22V27.25C100.22 26.99 100.133 26.7733 99.9598 26.6C99.7865 26.4267 99.5698 26.34 99.3098 26.34C98.1832 26.34 96.9352 26.392 95.5658 26.496C94.2138 26.6 93.1218 26.678 92.2898 26.73V23.48ZM122.963 26.86L119.323 33.36H115.683L112.043 26.86V37H107.363V18.8H112.303L117.503 28.42L122.703 18.8H127.643V37H122.963V26.86ZM135.973 33.62C136.892 33.62 137.932 33.4467 139.093 33.1V31.54H135.323C135.063 31.54 134.846 31.6267 134.673 31.8C134.5 31.9733 134.413 32.19 134.413 32.45V32.71C134.413 32.97 134.5 33.1867 134.673 33.36C134.846 33.5333 135.063 33.62 135.323 33.62H135.973ZM131.163 23.48C134.335 23.1333 137.195 22.96 139.743 22.96C140.922 22.96 141.866 23.3153 142.577 24.026C143.288 24.7367 143.643 25.6813 143.643 26.86V37H139.613L139.353 35.7C138.538 36.2373 137.698 36.636 136.831 36.896C135.982 37.1387 135.262 37.26 134.673 37.26H133.763C132.584 37.26 131.64 36.9047 130.929 36.194C130.218 35.4833 129.863 34.5387 129.863 33.36V32.19C129.863 31.0113 130.218 30.0667 130.929 29.356C131.64 28.6453 132.584 28.29 133.763 28.29H139.093V27.25C139.093 26.99 139.006 26.7733 138.833 26.6C138.66 26.4267 138.443 26.34 138.183 26.34C137.056 26.34 135.808 26.392 134.439 26.496C133.087 26.6 131.995 26.678 131.163 26.73V23.48ZM155.596 37C153.914 37.1733 152.268 37.26 150.656 37.26C149.477 37.26 148.532 36.9047 147.822 36.194C147.111 35.4833 146.756 34.5387 146.756 33.36V26.73H145.196V23.22H146.756L147.276 20.1H151.306V23.22H154.556V26.73H151.306V32.71C151.306 32.97 151.392 33.1867 151.566 33.36C151.739 33.5333 151.956 33.62 152.216 33.62H155.596V37ZM162.503 26.21C161.81 26.21 161.463 26.5567 161.463 27.25V28.68H165.883V27.25C165.883 26.5567 165.536 26.21 164.843 26.21H162.503ZM169.913 36.74C166.568 37.0867 163.534 37.26 160.813 37.26C159.634 37.26 158.69 36.9047 157.979 36.194C157.268 35.4833 156.913 34.5387 156.913 33.36V27.12C156.913 25.82 157.277 24.806 158.005 24.078C158.75 23.3327 159.773 22.96 161.073 22.96H166.273C167.573 22.96 168.587 23.3327 169.315 24.078C170.06 24.806 170.433 25.82 170.433 27.12V31.93H161.463V32.97C161.463 33.23 161.55 33.4467 161.723 33.62C161.896 33.7933 162.113 33.88 162.373 33.88C164.089 33.88 166.602 33.75 169.913 33.49V36.74ZM180.693 26.99C179.601 26.99 178.474 27.25 177.313 27.77V37H172.763V23.22H176.793L177.053 24.91C178.544 23.61 180.104 22.96 181.733 22.96H182.903V26.99H180.693Z" fill="#7BA05B"/>
</svg>
