<svg width="40" height="40" viewBox="0 0 40 40" fill="none" xmlns="http://www.w3.org/2000/svg">
<g clip-path="url(#clip0_14_353)">
<path d="M20 40C31.0457 40 40 31.0457 40 20C40 8.9543 31.0457 0 20 0C8.9543 0 0 8.9543 0 20C0 31.0457 8.9543 40 20 40Z" fill="#182015"/>
<path d="M32.4609 33.6018C33.6466 25.4363 26.1745 19.0604 19.4855 19.1946C13.0649 19.3289 6.39824 25.4586 7.56155 33.2439L32.4609 33.6018Z" fill="#7BA05B" stroke="#7BA05B" stroke-miterlimit="10"/>
<path d="M20 15.9508C24.0525 15.9508 27.3378 12.6655 27.3378 8.61299C27.3378 4.56043 24.0525 1.27518 20 1.27518C15.9474 1.27518 12.6622 4.56043 12.6622 8.61299C12.6622 12.6655 15.9474 15.9508 20 15.9508Z" fill="#7BA05B" stroke="#7BA05B" stroke-miterlimit="10"/>
</g>
<defs>
<clipPath id="clip0_14_353">
<rect width="40" height="40" fill="white"/>
</clipPath>
</defs>
</svg>
