<svg width="170" height="40" viewBox="0 0 170 40" fill="none" xmlns="http://www.w3.org/2000/svg">
<rect x="1.5" y="1.5" width="167" height="37" rx="13.5" fill="#182015" stroke="#7BA05B" stroke-width="3"/>
<path d="M18.56 20.97V19.579H18.872C18.95 19.579 19.0453 19.579 19.158 19.579C19.2707 19.579 19.3833 19.579 19.496 19.579C19.6173 19.5703 19.7343 19.5617 19.847 19.553C19.9597 19.5357 20.0507 19.5183 20.12 19.501C20.4233 19.4317 20.6833 19.3103 20.9 19.137C21.1167 18.955 21.225 18.7123 21.225 18.409C21.225 17.993 21.0907 17.7113 20.822 17.564C20.562 17.408 20.2153 17.33 19.782 17.33C19.392 17.33 19.028 17.382 18.69 17.486C18.352 17.59 18.0963 17.6897 17.923 17.785L17.468 16.277C17.5633 16.225 17.6977 16.1687 17.871 16.108C18.053 16.0473 18.2567 15.991 18.482 15.939C18.716 15.8783 18.9673 15.8307 19.236 15.796C19.5047 15.7613 19.7777 15.744 20.055 15.744C20.4363 15.744 20.809 15.7787 21.173 15.848C21.537 15.9173 21.862 16.0387 22.148 16.212C22.434 16.3853 22.6637 16.6193 22.837 16.914C23.0103 17.2 23.097 17.5683 23.097 18.019C23.097 18.4697 22.9757 18.8857 22.733 19.267C22.499 19.6483 22.1177 19.9257 21.589 20.099V20.164C22.1523 20.2767 22.59 20.5193 22.902 20.892C23.2227 21.2647 23.383 21.763 23.383 22.387C23.383 22.881 23.2833 23.3057 23.084 23.661C22.8847 24.0077 22.6203 24.2937 22.291 24.519C21.9703 24.7443 21.5977 24.909 21.173 25.013C20.7483 25.1257 20.315 25.182 19.873 25.182C19.301 25.182 18.781 25.1343 18.313 25.039C17.845 24.9437 17.4853 24.831 17.234 24.701L17.689 23.154C17.8883 23.2493 18.1743 23.349 18.547 23.453C18.9197 23.5483 19.3617 23.596 19.873 23.596C20.0637 23.596 20.2543 23.5743 20.445 23.531C20.6443 23.479 20.822 23.401 20.978 23.297C21.134 23.1843 21.2597 23.0413 21.355 22.868C21.4503 22.6947 21.498 22.4867 21.498 22.244C21.498 21.8367 21.3463 21.529 21.043 21.321C20.7397 21.113 20.198 21.0003 19.418 20.983C19.314 20.9743 19.236 20.97 19.184 20.97C19.132 20.97 19.041 20.97 18.911 20.97H18.56ZM29.1078 22.985H26.3128L25.6238 25H23.8428L27.1188 15.835H28.4318L31.7078 25H29.8358L29.1078 22.985ZM26.7678 21.555H28.7178L28.0418 19.527L27.7688 18.097H27.7038L27.4308 19.54L26.7678 21.555ZM32.4939 15.991C32.8579 15.9217 33.2565 15.8697 33.6899 15.835C34.1319 15.7917 34.5695 15.77 35.0029 15.77C35.4535 15.77 35.9042 15.809 36.3549 15.887C36.8142 15.9563 37.2259 16.1037 37.5899 16.329C37.9539 16.5457 38.2485 16.8533 38.4739 17.252C38.7079 17.642 38.8249 18.1533 38.8249 18.786C38.8249 19.358 38.7252 19.8433 38.5259 20.242C38.3265 20.632 38.0622 20.9527 37.7329 21.204C37.4035 21.4553 37.0265 21.6373 36.6019 21.75C36.1859 21.8627 35.7525 21.919 35.3019 21.919C35.2585 21.919 35.1892 21.919 35.0939 21.919C34.9985 21.919 34.8989 21.919 34.7949 21.919C34.6909 21.9103 34.5869 21.9017 34.4829 21.893C34.3875 21.8843 34.3182 21.8757 34.2749 21.867V25H32.4939V15.991ZM35.1459 17.304C34.9725 17.304 34.8079 17.3127 34.6519 17.33C34.4959 17.3387 34.3702 17.3517 34.2749 17.369V20.32C34.3095 20.3287 34.3615 20.3373 34.4309 20.346C34.5002 20.3547 34.5739 20.3633 34.6519 20.372C34.7299 20.372 34.8035 20.372 34.8729 20.372C34.9509 20.372 35.0072 20.372 35.0419 20.372C35.2759 20.372 35.5055 20.3503 35.7309 20.307C35.9649 20.2637 36.1729 20.1857 36.3549 20.073C36.5369 19.9517 36.6799 19.787 36.7839 19.579C36.8965 19.371 36.9529 19.098 36.9529 18.76C36.9529 18.474 36.9009 18.24 36.7969 18.058C36.6929 17.8673 36.5542 17.7157 36.3809 17.603C36.2162 17.4903 36.0255 17.4123 35.8089 17.369C35.5922 17.3257 35.3712 17.304 35.1459 17.304ZM39.9333 15.9H45.3283V17.486H41.7143V19.605H45.0033V21.191H41.7143V23.414H45.3933V25H39.9333V15.9ZM52.0163 17.486H48.5063V25H46.7253V15.9H52.0163V17.486ZM57.9834 19.956L58.0874 18.773H58.0224L57.4114 19.995L54.0184 25H52.6794V15.9H54.4604V20.853L54.3304 22.075H54.4084L55.0454 20.814L58.4384 15.9H59.7644V25H57.9834V19.956ZM67.4996 24.623C67.2223 24.8223 66.867 24.9653 66.4336 25.052C66.009 25.1387 65.5713 25.182 65.1206 25.182C64.5746 25.182 64.0546 25.0997 63.5606 24.935C63.0753 24.7617 62.6463 24.4887 62.2736 24.116C61.901 23.7347 61.602 23.245 61.3766 22.647C61.16 22.0403 61.0516 21.308 61.0516 20.45C61.0516 19.5573 61.173 18.812 61.4156 18.214C61.667 17.6073 61.9876 17.122 62.3776 16.758C62.7763 16.3853 63.2183 16.121 63.7036 15.965C64.189 15.8003 64.6743 15.718 65.1596 15.718C65.6796 15.718 66.1173 15.7527 66.4726 15.822C66.8366 15.8913 67.1356 15.9737 67.3696 16.069L67.0186 17.577C66.8193 17.4817 66.581 17.4123 66.3036 17.369C66.035 17.3257 65.7056 17.304 65.3156 17.304C64.5963 17.304 64.0156 17.5597 63.5736 18.071C63.1403 18.5823 62.9236 19.3753 62.9236 20.45C62.9236 20.918 62.9756 21.347 63.0796 21.737C63.1836 22.1183 63.3396 22.4477 63.5476 22.725C63.7643 22.9937 64.0286 23.206 64.3406 23.362C64.6613 23.5093 65.0296 23.583 65.4456 23.583C65.8356 23.583 66.165 23.544 66.4336 23.466C66.7023 23.388 66.9363 23.2883 67.1356 23.167L67.4996 24.623ZM74.9842 17.486H72.3322V25H70.5512V17.486H67.8862V15.9H74.9842V17.486ZM75.9118 15.991C76.2758 15.9217 76.6745 15.8697 77.1078 15.835C77.5498 15.7917 77.9875 15.77 78.4208 15.77C78.8715 15.77 79.3222 15.809 79.7728 15.887C80.2322 15.9563 80.6438 16.1037 81.0078 16.329C81.3718 16.5457 81.6665 16.8533 81.8918 17.252C82.1258 17.642 82.2428 18.1533 82.2428 18.786C82.2428 19.358 82.1432 19.8433 81.9438 20.242C81.7445 20.632 81.4802 20.9527 81.1508 21.204C80.8215 21.4553 80.4445 21.6373 80.0198 21.75C79.6038 21.8627 79.1705 21.919 78.7198 21.919C78.6765 21.919 78.6072 21.919 78.5118 21.919C78.4165 21.919 78.3168 21.919 78.2128 21.919C78.1088 21.9103 78.0048 21.9017 77.9008 21.893C77.8055 21.8843 77.7362 21.8757 77.6928 21.867V25H75.9118V15.991ZM78.5638 17.304C78.3905 17.304 78.2258 17.3127 78.0698 17.33C77.9138 17.3387 77.7882 17.3517 77.6928 17.369V20.32C77.7275 20.3287 77.7795 20.3373 77.8488 20.346C77.9182 20.3547 77.9918 20.3633 78.0698 20.372C78.1478 20.372 78.2215 20.372 78.2908 20.372C78.3688 20.372 78.4252 20.372 78.4598 20.372C78.6938 20.372 78.9235 20.3503 79.1488 20.307C79.3828 20.2637 79.5908 20.1857 79.7728 20.073C79.9548 19.9517 80.0978 19.787 80.2018 19.579C80.3145 19.371 80.3708 19.098 80.3708 18.76C80.3708 18.474 80.3188 18.24 80.2148 18.058C80.1108 17.8673 79.9722 17.7157 79.7988 17.603C79.6342 17.4903 79.4435 17.4123 79.2268 17.369C79.0102 17.3257 78.7892 17.304 78.5638 17.304ZM88.6553 19.956L88.7593 18.773H88.6943L88.0833 19.995L84.6903 25H83.3513V15.9H85.1323V20.853L85.0023 22.075H85.0803L85.7173 20.814L89.1103 15.9H90.4363V25H88.6553V19.956ZM92.0095 15.991C92.3735 15.9217 92.7722 15.8697 93.2055 15.835C93.6475 15.7917 94.0852 15.77 94.5185 15.77C94.9692 15.77 95.4198 15.809 95.8705 15.887C96.3298 15.9563 96.7415 16.1037 97.1055 16.329C97.4695 16.5457 97.7642 16.8533 97.9895 17.252C98.2235 17.642 98.3405 18.1533 98.3405 18.786C98.3405 19.358 98.2408 19.8433 98.0415 20.242C97.8422 20.632 97.5778 20.9527 97.2485 21.204C96.9192 21.4553 96.5422 21.6373 96.1175 21.75C95.7015 21.8627 95.2682 21.919 94.8175 21.919C94.7742 21.919 94.7048 21.919 94.6095 21.919C94.5142 21.919 94.4145 21.919 94.3105 21.919C94.2065 21.9103 94.1025 21.9017 93.9985 21.893C93.9032 21.8843 93.8338 21.8757 93.7905 21.867V25H92.0095V15.991ZM94.6615 17.304C94.4882 17.304 94.3235 17.3127 94.1675 17.33C94.0115 17.3387 93.8858 17.3517 93.7905 17.369V20.32C93.8252 20.3287 93.8772 20.3373 93.9465 20.346C94.0158 20.3547 94.0895 20.3633 94.1675 20.372C94.2455 20.372 94.3192 20.372 94.3885 20.372C94.4665 20.372 94.5228 20.372 94.5575 20.372C94.7915 20.372 95.0212 20.3503 95.2465 20.307C95.4805 20.2637 95.6885 20.1857 95.8705 20.073C96.0525 19.9517 96.1955 19.787 96.2995 19.579C96.4122 19.371 96.4685 19.098 96.4685 18.76C96.4685 18.474 96.4165 18.24 96.3125 18.058C96.2085 17.8673 96.0698 17.7157 95.8965 17.603C95.7318 17.4903 95.5412 17.4123 95.3245 17.369C95.1078 17.3257 94.8868 17.304 94.6615 17.304ZM99.0233 20.45C99.0233 18.9333 99.357 17.7677 100.024 16.953C100.692 16.1297 101.645 15.718 102.884 15.718C103.534 15.718 104.102 15.8307 104.587 16.056C105.073 16.2813 105.476 16.602 105.796 17.018C106.117 17.434 106.355 17.9323 106.511 18.513C106.667 19.0937 106.745 19.7393 106.745 20.45C106.745 21.9667 106.407 23.1367 105.731 23.96C105.064 24.7747 104.115 25.182 102.884 25.182C102.226 25.182 101.654 25.0693 101.168 24.844C100.683 24.6187 100.28 24.298 99.9593 23.882C99.6473 23.466 99.4133 22.9677 99.2573 22.387C99.1013 21.8063 99.0233 21.1607 99.0233 20.45ZM100.895 20.45C100.895 20.9093 100.934 21.334 101.012 21.724C101.09 22.1053 101.207 22.4347 101.363 22.712C101.528 22.9893 101.736 23.206 101.987 23.362C102.239 23.518 102.538 23.596 102.884 23.596C103.517 23.596 104.007 23.349 104.353 22.855C104.7 22.361 104.873 21.5593 104.873 20.45C104.873 20.008 104.834 19.5963 104.756 19.215C104.687 18.8337 104.574 18.5 104.418 18.214C104.262 17.928 104.059 17.707 103.807 17.551C103.556 17.3863 103.248 17.304 102.884 17.304C102.252 17.304 101.762 17.5597 101.415 18.071C101.069 18.5737 100.895 19.3667 100.895 20.45ZM114.141 18.019C114.141 18.2443 114.111 18.4697 114.05 18.695C113.998 18.9203 113.907 19.1283 113.777 19.319C113.647 19.501 113.478 19.6657 113.27 19.813C113.062 19.9517 112.811 20.0557 112.516 20.125V20.203C112.776 20.2463 113.023 20.32 113.257 20.424C113.491 20.528 113.695 20.671 113.868 20.853C114.042 21.035 114.176 21.256 114.271 21.516C114.375 21.776 114.427 22.0837 114.427 22.439C114.427 22.907 114.328 23.3143 114.128 23.661C113.929 23.999 113.66 24.2763 113.322 24.493C112.993 24.7097 112.616 24.87 112.191 24.974C111.767 25.078 111.329 25.13 110.878 25.13C110.731 25.13 110.54 25.13 110.306 25.13C110.081 25.13 109.834 25.1213 109.565 25.104C109.305 25.0953 109.037 25.078 108.759 25.052C108.491 25.026 108.244 24.987 108.018 24.935V15.965C108.183 15.939 108.369 15.913 108.577 15.887C108.794 15.861 109.024 15.8393 109.266 15.822C109.509 15.8047 109.756 15.7917 110.007 15.783C110.267 15.7743 110.523 15.77 110.774 15.77C111.199 15.77 111.611 15.8047 112.009 15.874C112.417 15.9347 112.776 16.0473 113.088 16.212C113.409 16.3767 113.665 16.6063 113.855 16.901C114.046 17.1957 114.141 17.5683 114.141 18.019ZM110.891 23.661C111.108 23.661 111.316 23.635 111.515 23.583C111.723 23.531 111.905 23.453 112.061 23.349C112.217 23.2363 112.343 23.0977 112.438 22.933C112.534 22.7683 112.581 22.5733 112.581 22.348C112.581 22.062 112.525 21.8367 112.412 21.672C112.3 21.5073 112.152 21.3817 111.97 21.295C111.788 21.1997 111.585 21.139 111.359 21.113C111.134 21.087 110.909 21.074 110.683 21.074H109.734V23.583C109.778 23.6003 109.847 23.6133 109.942 23.622C110.038 23.6307 110.137 23.6393 110.241 23.648C110.354 23.648 110.467 23.6523 110.579 23.661C110.701 23.661 110.805 23.661 110.891 23.661ZM110.306 19.722C110.428 19.722 110.566 19.7177 110.722 19.709C110.887 19.7003 111.021 19.6873 111.125 19.67C111.455 19.566 111.736 19.41 111.97 19.202C112.213 18.994 112.334 18.721 112.334 18.383C112.334 18.1577 112.291 17.9713 112.204 17.824C112.118 17.6767 112.001 17.5597 111.853 17.473C111.715 17.3863 111.554 17.3257 111.372 17.291C111.19 17.2563 111 17.239 110.8 17.239C110.575 17.239 110.367 17.2433 110.176 17.252C109.986 17.2607 109.838 17.2737 109.734 17.291V19.722H110.306ZM120.184 22.985H117.389L116.7 25H114.919L118.195 15.835H119.508L122.784 25H120.912L120.184 22.985ZM117.844 21.555H119.794L119.118 19.527L118.845 18.097H118.78L118.507 19.54L117.844 21.555ZM129.015 17.486H126.363V25H124.582V17.486H121.917V15.9H129.015V17.486ZM129.943 15.9H131.724V19.163C131.767 19.1543 131.837 19.1457 131.932 19.137C132.036 19.1197 132.144 19.1067 132.257 19.098C132.378 19.0893 132.5 19.0807 132.621 19.072C132.742 19.0633 132.855 19.059 132.959 19.059C133.384 19.059 133.795 19.1023 134.194 19.189C134.593 19.2757 134.944 19.4317 135.247 19.657C135.559 19.8737 135.806 20.1727 135.988 20.554C136.17 20.9267 136.261 21.4033 136.261 21.984C136.261 23.024 135.936 23.8083 135.286 24.337C134.645 24.8657 133.722 25.13 132.517 25.13C132.396 25.13 132.231 25.1257 132.023 25.117C131.824 25.117 131.603 25.1083 131.36 25.091C131.117 25.0737 130.87 25.052 130.619 25.026C130.376 25 130.151 24.961 129.943 24.909V15.9ZM132.608 23.544C132.851 23.544 133.08 23.5223 133.297 23.479C133.514 23.427 133.704 23.3447 133.869 23.232C134.034 23.1107 134.159 22.9547 134.246 22.764C134.341 22.5733 134.389 22.3393 134.389 22.062C134.389 21.7673 134.337 21.529 134.233 21.347C134.138 21.1563 134.008 21.009 133.843 20.905C133.687 20.801 133.501 20.7317 133.284 20.697C133.067 20.6623 132.842 20.645 132.608 20.645C132.547 20.645 132.474 20.6493 132.387 20.658C132.3 20.6667 132.214 20.6753 132.127 20.684C132.04 20.6927 131.958 20.7057 131.88 20.723C131.811 20.7317 131.759 20.7403 131.724 20.749V23.466C131.819 23.492 131.945 23.5137 132.101 23.531C132.266 23.5397 132.435 23.544 132.608 23.544ZM143.405 24.623C143.128 24.8223 142.772 24.9653 142.339 25.052C141.914 25.1387 141.477 25.182 141.026 25.182C140.48 25.182 139.96 25.0997 139.466 24.935C138.981 24.7617 138.552 24.4887 138.179 24.116C137.806 23.7347 137.507 23.245 137.282 22.647C137.065 22.0403 136.957 21.308 136.957 20.45C136.957 19.5573 137.078 18.812 137.321 18.214C137.572 17.6073 137.893 17.122 138.283 16.758C138.682 16.3853 139.124 16.121 139.609 15.965C140.094 15.8003 140.58 15.718 141.065 15.718C141.585 15.718 142.023 15.7527 142.378 15.822C142.742 15.8913 143.041 15.9737 143.275 16.069L142.924 17.577C142.725 17.4817 142.486 17.4123 142.209 17.369C141.94 17.3257 141.611 17.304 141.221 17.304C140.502 17.304 139.921 17.5597 139.479 18.071C139.046 18.5823 138.829 19.3753 138.829 20.45C138.829 20.918 138.881 21.347 138.985 21.737C139.089 22.1183 139.245 22.4477 139.453 22.725C139.67 22.9937 139.934 23.206 140.246 23.362C140.567 23.5093 140.935 23.583 141.351 23.583C141.741 23.583 142.07 23.544 142.339 23.466C142.608 23.388 142.842 23.2883 143.041 23.167L143.405 24.623ZM150.472 25H148.691V21.399L147.755 21.646L145.857 25H143.79L145.662 21.971L146.442 21.412C146.164 21.3427 145.904 21.2387 145.662 21.1C145.419 20.9527 145.207 20.7663 145.025 20.541C144.843 20.3157 144.7 20.0513 144.596 19.748C144.492 19.436 144.44 19.085 144.44 18.695C144.44 18.149 144.535 17.6897 144.726 17.317C144.916 16.9443 145.181 16.6453 145.519 16.42C145.857 16.186 146.26 16.0213 146.728 15.926C147.196 15.822 147.703 15.77 148.249 15.77C148.396 15.77 148.565 15.7743 148.756 15.783C148.946 15.7917 149.141 15.8047 149.341 15.822C149.549 15.8393 149.748 15.861 149.939 15.887C150.138 15.913 150.316 15.9477 150.472 15.991V25ZM148.028 17.356C147.794 17.356 147.573 17.3777 147.365 17.421C147.157 17.4643 146.975 17.538 146.819 17.642C146.663 17.746 146.537 17.889 146.442 18.071C146.355 18.253 146.312 18.487 146.312 18.773C146.312 19.0417 146.355 19.2713 146.442 19.462C146.528 19.644 146.65 19.7957 146.806 19.917C146.962 20.0297 147.144 20.112 147.352 20.164C147.56 20.216 147.785 20.242 148.028 20.242H148.691V17.421C148.595 17.4037 148.496 17.3907 148.392 17.382C148.296 17.3647 148.175 17.356 148.028 17.356Z" fill="#7BA05B"/>
</svg>
