<svg width="100" height="40" viewBox="0 0 100 40" fill="none" xmlns="http://www.w3.org/2000/svg">
<rect x="1.5" y="1.5" width="97" height="37" rx="13.5" fill="#7BA05B" stroke="#182015" stroke-width="3"/>
<path d="M35.903 18.019C35.903 18.2443 35.8727 18.4697 35.812 18.695C35.76 18.9203 35.669 19.1283 35.539 19.319C35.409 19.501 35.24 19.6657 35.032 19.813C34.824 19.9517 34.5727 20.0557 34.278 20.125V20.203C34.538 20.2463 34.785 20.32 35.019 20.424C35.253 20.528 35.4567 20.671 35.63 20.853C35.8033 21.035 35.9377 21.256 36.033 21.516C36.137 21.776 36.189 22.0837 36.189 22.439C36.189 22.907 36.0893 23.3143 35.89 23.661C35.6907 23.999 35.422 24.2763 35.084 24.493C34.7547 24.7097 34.3777 24.87 33.953 24.974C33.5283 25.078 33.0907 25.13 32.64 25.13C32.4927 25.13 32.302 25.13 32.068 25.13C31.8427 25.13 31.5957 25.1213 31.327 25.104C31.067 25.0953 30.7983 25.078 30.521 25.052C30.2523 25.026 30.0053 24.987 29.78 24.935V15.965C29.9447 15.939 30.131 15.913 30.339 15.887C30.5557 15.861 30.7853 15.8393 31.028 15.822C31.2707 15.8047 31.5177 15.7917 31.769 15.783C32.029 15.7743 32.2847 15.77 32.536 15.77C32.9607 15.77 33.3723 15.8047 33.771 15.874C34.1783 15.9347 34.538 16.0473 34.85 16.212C35.1707 16.3767 35.4263 16.6063 35.617 16.901C35.8077 17.1957 35.903 17.5683 35.903 18.019ZM32.653 23.661C32.8697 23.661 33.0777 23.635 33.277 23.583C33.485 23.531 33.667 23.453 33.823 23.349C33.979 23.2363 34.1047 23.0977 34.2 22.933C34.2953 22.7683 34.343 22.5733 34.343 22.348C34.343 22.062 34.2867 21.8367 34.174 21.672C34.0613 21.5073 33.914 21.3817 33.732 21.295C33.55 21.1997 33.3463 21.139 33.121 21.113C32.8957 21.087 32.6703 21.074 32.445 21.074H31.496V23.583C31.5393 23.6003 31.6087 23.6133 31.704 23.622C31.7993 23.6307 31.899 23.6393 32.003 23.648C32.1157 23.648 32.2283 23.6523 32.341 23.661C32.4623 23.661 32.5663 23.661 32.653 23.661ZM32.068 19.722C32.1893 19.722 32.328 19.7177 32.484 19.709C32.6487 19.7003 32.783 19.6873 32.887 19.67C33.2163 19.566 33.498 19.41 33.732 19.202C33.9747 18.994 34.096 18.721 34.096 18.383C34.096 18.1577 34.0527 17.9713 33.966 17.824C33.8793 17.6767 33.7623 17.5597 33.615 17.473C33.4763 17.3863 33.316 17.3257 33.134 17.291C32.952 17.2563 32.7613 17.239 32.562 17.239C32.3367 17.239 32.1287 17.2433 31.938 17.252C31.7473 17.2607 31.6 17.2737 31.496 17.291V19.722H32.068ZM37.1747 20.45C37.1747 18.9333 37.5083 17.7677 38.1757 16.953C38.843 16.1297 39.7963 15.718 41.0357 15.718C41.6857 15.718 42.2533 15.8307 42.7387 16.056C43.224 16.2813 43.627 16.602 43.9477 17.018C44.2683 17.434 44.5067 17.9323 44.6627 18.513C44.8187 19.0937 44.8967 19.7393 44.8967 20.45C44.8967 21.9667 44.5587 23.1367 43.8827 23.96C43.2153 24.7747 42.2663 25.182 41.0357 25.182C40.377 25.182 39.805 25.0693 39.3197 24.844C38.8343 24.6187 38.4313 24.298 38.1107 23.882C37.7987 23.466 37.5647 22.9677 37.4087 22.387C37.2527 21.8063 37.1747 21.1607 37.1747 20.45ZM39.0467 20.45C39.0467 20.9093 39.0857 21.334 39.1637 21.724C39.2417 22.1053 39.3587 22.4347 39.5147 22.712C39.6793 22.9893 39.8873 23.206 40.1387 23.362C40.39 23.518 40.689 23.596 41.0357 23.596C41.6683 23.596 42.158 23.349 42.5047 22.855C42.8513 22.361 43.0247 21.5593 43.0247 20.45C43.0247 20.008 42.9857 19.5963 42.9077 19.215C42.8383 18.8337 42.7257 18.5 42.5697 18.214C42.4137 17.928 42.21 17.707 41.9587 17.551C41.7073 17.3863 41.3997 17.304 41.0357 17.304C40.403 17.304 39.9133 17.5597 39.5667 18.071C39.22 18.5737 39.0467 19.3667 39.0467 20.45ZM51.4736 19.956L51.5776 18.773H51.5126L50.9016 19.995L47.5086 25H46.1696V15.9H47.9506V20.853L47.8206 22.075H47.8986L48.5356 20.814L51.9286 15.9H53.2546V25H51.4736V19.956ZM48.9386 13.638C48.9733 13.9153 49.073 14.1147 49.2376 14.236C49.411 14.3573 49.632 14.418 49.9006 14.418C50.4813 14.418 50.802 14.1623 50.8626 13.651L52.3056 13.872C52.2103 14.418 51.959 14.8167 51.5516 15.068C51.153 15.3193 50.5983 15.445 49.8876 15.445C49.5323 15.445 49.2073 15.419 48.9126 15.367C48.618 15.315 48.358 15.2327 48.1326 15.12C47.916 14.9987 47.734 14.8383 47.5866 14.639C47.448 14.4397 47.3613 14.1927 47.3266 13.898L48.9386 13.638ZM61.2889 17.486H58.6369V25H56.8559V17.486H54.1909V15.9H61.2889V17.486ZM67.5205 19.956L67.6245 18.773H67.5595L66.9485 19.995L63.5555 25H62.2165V15.9H63.9975V20.853L63.8675 22.075H63.9455L64.5825 20.814L67.9755 15.9H69.3015V25H67.5205V19.956Z" fill="#182015"/>
</svg>
